<svg xmlns="http://www.w3.org/2000/svg" xmlns:xlink="http://www.w3.org/1999/xlink" id="processonSvg1000" width="749" height="414" viewBox="208 444 749 414"><defs id="ProcessOnDefs1001"><marker id="ProcessOnMarker1047" markerHeight="10.551" markerUnits="userSpaceOnUse" markerWidth="16.236" orient="auto" refX="-1" refY="3.899" viewBox="-1 -1.376 16.236 10.551"><path id="ProcessOnPath1048" fill="#323232" stroke="#323232" stroke-width="2" d="M12.0 3.8990363547948754L0.0 7.798072709589751V0.0Z" transform="matrix(1.0,0.0,0.0,1.0,0.0,0.0)"/></marker><marker id="ProcessOnMarker1051" markerHeight="10.551" markerUnits="userSpaceOnUse" markerWidth="16.236" orient="auto" refX="-1" refY="3.899" viewBox="-1 -1.376 16.236 10.551"><path id="ProcessOnPath1052" fill="#323232" stroke="#323232" stroke-width="2" d="M12.0 3.8990363547948754L0.0 7.798072709589751V0.0Z" transform="matrix(1.0,0.0,0.0,1.0,0.0,0.0)"/></marker><marker id="ProcessOnMarker1055" markerHeight="10.551" markerUnits="userSpaceOnUse" markerWidth="16.236" orient="auto" refX="-1" refY="3.899" viewBox="-1 -1.376 16.236 10.551"><path id="ProcessOnPath1056" fill="#323232" stroke="#323232" stroke-width="2" d="M12.0 3.8990363547948754L0.0 7.798072709589751V0.0Z" transform="matrix(1.0,0.0,0.0,1.0,0.0,0.0)"/></marker><marker id="ProcessOnMarker1059" markerHeight="10.551" markerUnits="userSpaceOnUse" markerWidth="16.236" orient="auto" refX="-1" refY="3.899" viewBox="-1 -1.376 16.236 10.551"><path id="ProcessOnPath1060" fill="#323232" stroke="#323232" stroke-width="2" d="M12.0 3.8990363547948754L0.0 7.798072709589751V0.0Z" transform="matrix(1.0,0.0,0.0,1.0,0.0,0.0)"/></marker><marker id="ProcessOnMarker1063" markerHeight="10.551" markerUnits="userSpaceOnUse" markerWidth="16.236" orient="auto" refX="-1" refY="3.899" viewBox="-1 -1.376 16.236 10.551"><path id="ProcessOnPath1064" fill="#323232" stroke="#323232" stroke-width="2" d="M12.0 3.8990363547948754L0.0 7.798072709589751V0.0Z" transform="matrix(1.0,0.0,0.0,1.0,0.0,0.0)"/></marker><marker id="ProcessOnMarker1067" markerHeight="10.551" markerUnits="userSpaceOnUse" markerWidth="16.236" orient="auto" refX="-1" refY="3.899" viewBox="-1 -1.376 16.236 10.551"><path id="ProcessOnPath1068" fill="#323232" stroke="#323232" stroke-width="2" d="M12.0 3.8990363547948754L0.0 7.798072709589751V0.0Z" transform="matrix(1.0,0.0,0.0,1.0,0.0,0.0)"/></marker><marker id="ProcessOnMarker1071" markerHeight="10.551" markerUnits="userSpaceOnUse" markerWidth="16.236" orient="auto" refX="-1" refY="3.899" viewBox="-1 -1.376 16.236 10.551"><path id="ProcessOnPath1072" fill="#323232" stroke="#323232" stroke-width="2" d="M12.0 3.8990363547948754L0.0 7.798072709589751V0.0Z" transform="matrix(1.0,0.0,0.0,1.0,0.0,0.0)"/></marker><marker id="ProcessOnMarker1075" markerHeight="10.551" markerUnits="userSpaceOnUse" markerWidth="16.236" orient="auto" refX="-1" refY="3.899" viewBox="-1 -1.376 16.236 10.551"><path id="ProcessOnPath1076" fill="#323232" stroke="#323232" stroke-width="2" d="M12.0 3.8990363547948754L0.0 7.798072709589751V0.0Z" transform="matrix(1.0,0.0,0.0,1.0,0.0,0.0)"/></marker><marker id="ProcessOnMarker1079" markerHeight="10.551" markerUnits="userSpaceOnUse" markerWidth="16.236" orient="auto" refX="-1" refY="3.899" viewBox="-1 -1.376 16.236 10.551"><path id="ProcessOnPath1080" fill="#323232" stroke="#323232" stroke-width="2" d="M12.0 3.8990363547948754L0.0 7.798072709589751V0.0Z" transform="matrix(1.0,0.0,0.0,1.0,0.0,0.0)"/></marker><marker id="ProcessOnMarker1083" markerHeight="10.551" markerUnits="userSpaceOnUse" markerWidth="16.236" orient="auto" refX="-1" refY="3.899" viewBox="-1 -1.376 16.236 10.551"><path id="ProcessOnPath1084" fill="#323232" stroke="#323232" stroke-width="2" d="M12.0 3.8990363547948754L0.0 7.798072709589751V0.0Z" transform="matrix(1.0,0.0,0.0,1.0,0.0,0.0)"/></marker><marker id="ProcessOnMarker1091" markerHeight="10.551" markerUnits="userSpaceOnUse" markerWidth="16.236" orient="auto" refX="-1" refY="3.899" viewBox="-1 -1.376 16.236 10.551"><path id="ProcessOnPath1092" fill="#323232" stroke="#323232" stroke-width="2" d="M12.0 3.8990363547948754L0.0 7.798072709589751V0.0Z" transform="matrix(1.0,0.0,0.0,1.0,0.0,0.0)"/></marker><marker id="ProcessOnMarker1099" markerHeight="10.551" markerUnits="userSpaceOnUse" markerWidth="16.236" orient="auto" refX="-1" refY="3.899" viewBox="-1 -1.376 16.236 10.551"><path id="ProcessOnPath1100" fill="#323232" stroke="#323232" stroke-width="2" d="M12.0 3.8990363547948754L0.0 7.798072709589751V0.0Z" transform="matrix(1.0,0.0,0.0,1.0,0.0,0.0)"/></marker><marker id="ProcessOnMarker1107" markerHeight="10.551" markerUnits="userSpaceOnUse" markerWidth="16.236" orient="auto" refX="-1" refY="3.899" viewBox="-1 -1.376 16.236 10.551"><path id="ProcessOnPath1108" fill="#323232" stroke="#323232" stroke-width="2" d="M12.0 3.8990363547948754L0.0 7.798072709589751V0.0Z" transform="matrix(1.0,0.0,0.0,1.0,0.0,0.0)"/></marker><marker id="ProcessOnMarker1115" markerHeight="10.551" markerUnits="userSpaceOnUse" markerWidth="16.236" orient="auto" refX="-1" refY="3.899" viewBox="-1 -1.376 16.236 10.551"><path id="ProcessOnPath1116" fill="#323232" stroke="#323232" stroke-width="2" d="M12.0 3.8990363547948754L0.0 7.798072709589751V0.0Z" transform="matrix(1.0,0.0,0.0,1.0,0.0,0.0)"/></marker><marker id="ProcessOnMarker1119" markerHeight="10.551" markerUnits="userSpaceOnUse" markerWidth="16.236" orient="auto" refX="-1" refY="3.899" viewBox="-1 -1.376 16.236 10.551"><path id="ProcessOnPath1120" fill="#323232" stroke="#323232" stroke-width="2" d="M12.0 3.8990363547948754L0.0 7.798072709589751V0.0Z" transform="matrix(1.0,0.0,0.0,1.0,0.0,0.0)"/></marker><marker id="ProcessOnMarker1123" markerHeight="10.551" markerUnits="userSpaceOnUse" markerWidth="16.236" orient="auto" refX="-1" refY="3.899" viewBox="-1 -1.376 16.236 10.551"><path id="ProcessOnPath1124" fill="#323232" stroke="#323232" stroke-width="2" d="M12.0 3.8990363547948754L0.0 7.798072709589751V0.0Z" transform="matrix(1.0,0.0,0.0,1.0,0.0,0.0)"/></marker><marker id="ProcessOnMarker1127" markerHeight="10.551" markerUnits="userSpaceOnUse" markerWidth="16.236" orient="auto" refX="-1" refY="3.899" viewBox="-1 -1.376 16.236 10.551"><path id="ProcessOnPath1128" fill="#323232" stroke="#323232" stroke-width="2" d="M12.0 3.8990363547948754L0.0 7.798072709589751V0.0Z" transform="matrix(1.0,0.0,0.0,1.0,0.0,0.0)"/></marker><marker id="ProcessOnMarker1131" markerHeight="10.551" markerUnits="userSpaceOnUse" markerWidth="16.236" orient="auto" refX="-1" refY="3.899" viewBox="-1 -1.376 16.236 10.551"><path id="ProcessOnPath1132" fill="#323232" stroke="#323232" stroke-width="2" d="M12.0 3.8990363547948754L0.0 7.798072709589751V0.0Z" transform="matrix(1.0,0.0,0.0,1.0,0.0,0.0)"/></marker><marker id="ProcessOnMarker1135" markerHeight="10.551" markerUnits="userSpaceOnUse" markerWidth="16.236" orient="auto" refX="-1" refY="3.899" viewBox="-1 -1.376 16.236 10.551"><path id="ProcessOnPath1136" fill="#323232" stroke="#323232" stroke-width="2" d="M12.0 3.8990363547948754L0.0 7.798072709589751V0.0Z" transform="matrix(1.0,0.0,0.0,1.0,0.0,0.0)"/></marker><marker id="ProcessOnMarker1139" markerHeight="10.551" markerUnits="userSpaceOnUse" markerWidth="16.236" orient="auto" refX="-1" refY="3.899" viewBox="-1 -1.376 16.236 10.551"><path id="ProcessOnPath1140" fill="#323232" stroke="#323232" stroke-width="2" d="M12.0 3.8990363547948754L0.0 7.798072709589751V0.0Z" transform="matrix(1.0,0.0,0.0,1.0,0.0,0.0)"/></marker><marker id="ProcessOnMarker1143" markerHeight="10.551" markerUnits="userSpaceOnUse" markerWidth="16.236" orient="auto" refX="-1" refY="3.899" viewBox="-1 -1.376 16.236 10.551"><path id="ProcessOnPath1144" fill="#323232" stroke="#323232" stroke-width="2" d="M12.0 3.8990363547948754L0.0 7.798072709589751V0.0Z" transform="matrix(1.0,0.0,0.0,1.0,0.0,0.0)"/></marker><marker id="ProcessOnMarker1147" markerHeight="10.551" markerUnits="userSpaceOnUse" markerWidth="16.236" orient="auto" refX="-1" refY="3.899" viewBox="-1 -1.376 16.236 10.551"><path id="ProcessOnPath1148" fill="#323232" stroke="#323232" stroke-width="2" d="M12.0 3.8990363547948754L0.0 7.798072709589751V0.0Z" transform="matrix(1.0,0.0,0.0,1.0,0.0,0.0)"/></marker><marker id="ProcessOnMarker1151" markerHeight="10.551" markerUnits="userSpaceOnUse" markerWidth="16.236" orient="auto" refX="-1" refY="3.899" viewBox="-1 -1.376 16.236 10.551"><path id="ProcessOnPath1152" fill="#323232" stroke="#323232" stroke-width="2" d="M12.0 3.8990363547948754L0.0 7.798072709589751V0.0Z" transform="matrix(1.0,0.0,0.0,1.0,0.0,0.0)"/></marker><marker id="ProcessOnMarker1155" markerHeight="10.551" markerUnits="userSpaceOnUse" markerWidth="16.236" orient="auto" refX="-1" refY="3.899" viewBox="-1 -1.376 16.236 10.551"><path id="ProcessOnPath1156" fill="#323232" stroke="#323232" stroke-width="2" d="M12.0 3.8990363547948754L0.0 7.798072709589751V0.0Z" transform="matrix(1.0,0.0,0.0,1.0,0.0,0.0)"/></marker><marker id="ProcessOnMarker1159" markerHeight="10.551" markerUnits="userSpaceOnUse" markerWidth="16.236" orient="auto" refX="-1" refY="3.899" viewBox="-1 -1.376 16.236 10.551"><path id="ProcessOnPath1160" fill="#323232" stroke="#323232" stroke-width="2" d="M12.0 3.8990363547948754L0.0 7.798072709589751V0.0Z" transform="matrix(1.0,0.0,0.0,1.0,0.0,0.0)"/></marker><marker id="ProcessOnMarker1163" markerHeight="10.551" markerUnits="userSpaceOnUse" markerWidth="16.236" orient="auto" refX="-1" refY="3.899" viewBox="-1 -1.376 16.236 10.551"><path id="ProcessOnPath1164" fill="#323232" stroke="#323232" stroke-width="2" d="M12.0 3.8990363547948754L0.0 7.798072709589751V0.0Z" transform="matrix(1.0,0.0,0.0,1.0,0.0,0.0)"/></marker><marker id="ProcessOnMarker1167" markerHeight="10.551" markerUnits="userSpaceOnUse" markerWidth="16.236" orient="auto" refX="-1" refY="3.899" viewBox="-1 -1.376 16.236 10.551"><path id="ProcessOnPath1168" fill="#323232" stroke="#323232" stroke-width="2" d="M12.0 3.8990363547948754L0.0 7.798072709589751V0.0Z" transform="matrix(1.0,0.0,0.0,1.0,0.0,0.0)"/></marker></defs><g id="ProcessOnG1002"><path id="ProcessOnPath1003" fill="none" d="M208.0 444.0H957.0V858.0H208.0V444.0Z"/><g id="ProcessOnG1004"><g id="ProcessOnG1005" opacity="1" transform="matrix(1.0,0.0,0.0,1.0,312.0,530.0)"><path id="ProcessOnPath1006" fill="#fff" stroke="#323232" stroke-dasharray="none" stroke-width="2" d="M0.0 0.0L69.0 0.0L69.0 93.0L0.0 93.0Z" opacity="1"/><g id="ProcessOnG1007" transform="matrix(1.0,0.0,0.0,1.0,10.0,35.25)"><text id="ProcessOnText1008" x="23.5" y="18.45" fill="#000" family="微软雅黑" font-family="微软雅黑" font-size="18" font-style="normal" font-weight="normal" size="18" text-anchor="middle" text-decoration="none">RNN</text></g></g><g id="ProcessOnG1009" opacity="1" transform="matrix(1.0,0.0,0.0,1.0,780.0,530.0)"><path id="ProcessOnPath1010" fill="#fff" stroke="#323232" stroke-dasharray="none" stroke-width="2" d="M0.0 0.0L69.0 0.0L69.0 93.0L0.0 93.0Z" opacity="1"/><g id="ProcessOnG1011" transform="matrix(1.0,0.0,0.0,1.0,10.0,35.25)"><text id="ProcessOnText1012" x="23.5" y="18.45" fill="#000" family="微软雅黑" font-family="微软雅黑" font-size="18" font-style="normal" font-weight="normal" size="18" text-anchor="middle" text-decoration="none">RNN</text></g></g><g id="ProcessOnG1013" opacity="1" transform="matrix(1.0,0.0,0.0,1.0,663.0,530.0)"><path id="ProcessOnPath1014" fill="#fff" stroke="#323232" stroke-dasharray="none" stroke-width="2" d="M0.0 0.0L69.0 0.0L69.0 93.0L0.0 93.0Z" opacity="1"/><g id="ProcessOnG1015" transform="matrix(1.0,0.0,0.0,1.0,10.0,35.25)"><text id="ProcessOnText1016" x="23.5" y="18.45" fill="#000" family="微软雅黑" font-family="微软雅黑" font-size="18" font-style="normal" font-weight="normal" size="18" text-anchor="middle" text-decoration="none">RNN</text></g></g><g id="ProcessOnG1017" opacity="1" transform="matrix(1.0,0.0,0.0,1.0,546.0,530.0)"><path id="ProcessOnPath1018" fill="#fff" stroke="#323232" stroke-dasharray="none" stroke-width="2" d="M0.0 0.0L69.0 0.0L69.0 93.0L0.0 93.0Z" opacity="1"/><g id="ProcessOnG1019" transform="matrix(1.0,0.0,0.0,1.0,10.0,35.25)"><text id="ProcessOnText1020" x="23.5" y="18.45" fill="#000" family="微软雅黑" font-family="微软雅黑" font-size="18" font-style="normal" font-weight="normal" size="18" text-anchor="middle" text-decoration="none">RNN</text></g></g><g id="ProcessOnG1021" opacity="1" transform="matrix(1.0,0.0,0.0,1.0,429.0,530.0)"><path id="ProcessOnPath1022" fill="#fff" stroke="#323232" stroke-dasharray="none" stroke-width="2" d="M0.0 0.0L69.0 0.0L69.0 93.0L0.0 93.0Z" opacity="1"/><g id="ProcessOnG1023" transform="matrix(1.0,0.0,0.0,1.0,10.0,35.25)"><text id="ProcessOnText1024" x="23.5" y="18.45" fill="#000" family="微软雅黑" font-family="微软雅黑" font-size="18" font-style="normal" font-weight="normal" size="18" text-anchor="middle" text-decoration="none">RNN</text></g></g><g id="ProcessOnG1025" opacity="1" transform="matrix(1.0,0.0,0.0,1.0,312.0,673.5)"><path id="ProcessOnPath1026" fill="#fff" stroke="#323232" stroke-dasharray="none" stroke-width="2" d="M0.0 0.0L69.0 0.0L69.0 93.0L0.0 93.0Z" opacity="1"/><g id="ProcessOnG1027" transform="matrix(1.0,0.0,0.0,1.0,10.0,35.25)"><text id="ProcessOnText1028" x="23.5" y="18.45" fill="#000" family="微软雅黑" font-family="微软雅黑" font-size="18" font-style="normal" font-weight="normal" size="18" text-anchor="middle" text-decoration="none">RNN</text></g></g><g id="ProcessOnG1029" opacity="1" transform="matrix(1.0,0.0,0.0,1.0,780.0,673.5)"><path id="ProcessOnPath1030" fill="#fff" stroke="#323232" stroke-dasharray="none" stroke-width="2" d="M0.0 0.0L69.0 0.0L69.0 93.0L0.0 93.0Z" opacity="1"/><g id="ProcessOnG1031" transform="matrix(1.0,0.0,0.0,1.0,10.0,35.25)"><text id="ProcessOnText1032" x="23.5" y="18.45" fill="#000" family="微软雅黑" font-family="微软雅黑" font-size="18" font-style="normal" font-weight="normal" size="18" text-anchor="middle" text-decoration="none">RNN</text></g></g><g id="ProcessOnG1033" opacity="1" transform="matrix(1.0,0.0,0.0,1.0,663.0,673.5)"><path id="ProcessOnPath1034" fill="#fff" stroke="#323232" stroke-dasharray="none" stroke-width="2" d="M0.0 0.0L69.0 0.0L69.0 93.0L0.0 93.0Z" opacity="1"/><g id="ProcessOnG1035" transform="matrix(1.0,0.0,0.0,1.0,10.0,35.25)"><text id="ProcessOnText1036" x="23.5" y="18.45" fill="#000" family="微软雅黑" font-family="微软雅黑" font-size="18" font-style="normal" font-weight="normal" size="18" text-anchor="middle" text-decoration="none">RNN</text></g></g><g id="ProcessOnG1037" opacity="1" transform="matrix(1.0,0.0,0.0,1.0,546.0,673.5)"><path id="ProcessOnPath1038" fill="#fff" stroke="#323232" stroke-dasharray="none" stroke-width="2" d="M0.0 0.0L69.0 0.0L69.0 93.0L0.0 93.0Z" opacity="1"/><g id="ProcessOnG1039" transform="matrix(1.0,0.0,0.0,1.0,10.0,35.25)"><text id="ProcessOnText1040" x="23.5" y="18.45" fill="#000" family="微软雅黑" font-family="微软雅黑" font-size="18" font-style="normal" font-weight="normal" size="18" text-anchor="middle" text-decoration="none">RNN</text></g></g><g id="ProcessOnG1041" opacity="1" transform="matrix(1.0,0.0,0.0,1.0,429.0,673.5)"><path id="ProcessOnPath1042" fill="#fff" stroke="#323232" stroke-dasharray="none" stroke-width="2" d="M0.0 0.0L69.0 0.0L69.0 93.0L0.0 93.0Z" opacity="1"/><g id="ProcessOnG1043" transform="matrix(1.0,0.0,0.0,1.0,10.0,35.25)"><text id="ProcessOnText1044" x="23.5" y="18.45" fill="#000" family="微软雅黑" font-family="微软雅黑" font-size="18" font-style="normal" font-weight="normal" size="18" text-anchor="middle" text-decoration="none">RNN</text></g></g><g id="ProcessOnG1045"><path id="ProcessOnPath1046" fill="none" stroke="#323232" stroke-dasharray="none" stroke-width="2" marker-end="url(#ProcessOnMarker1047)" d="M381.0 576.5L405.0 576.5L405.0 576.5L413.7639320225002 576.5"/></g><g id="ProcessOnG1049"><path id="ProcessOnPath1050" fill="none" stroke="#323232" stroke-dasharray="none" stroke-width="2" marker-end="url(#ProcessOnMarker1051)" d="M498.0 576.5L522.0 576.5L522.0 576.5L530.7639320225002 576.5"/></g><g id="ProcessOnG1053"><path id="ProcessOnPath1054" fill="none" stroke="#323232" stroke-dasharray="none" stroke-width="2" marker-end="url(#ProcessOnMarker1055)" d="M615.0 576.5L639.0 576.5L639.0 576.5L647.7639320225002 576.5"/></g><g id="ProcessOnG1057"><path id="ProcessOnPath1058" fill="none" stroke="#323232" stroke-dasharray="none" stroke-width="2" marker-end="url(#ProcessOnMarker1059)" d="M732.0 576.5L756.0 576.5L756.0 576.5L764.7639320225002 576.5"/></g><g id="ProcessOnG1061"><path id="ProcessOnPath1062" fill="none" stroke="#323232" stroke-dasharray="none" stroke-width="2" marker-end="url(#ProcessOnMarker1063)" d="M346.5 673.5L346.5 648.25L346.5 648.25L346.5 638.2360679774998"/></g><g id="ProcessOnG1065"><path id="ProcessOnPath1066" fill="none" stroke="#323232" stroke-dasharray="none" stroke-width="2" marker-end="url(#ProcessOnMarker1067)" d="M463.5 673.5L463.5 648.25L463.5 648.25L463.5 638.2360679774998"/></g><g id="ProcessOnG1069"><path id="ProcessOnPath1070" fill="none" stroke="#323232" stroke-dasharray="none" stroke-width="2" marker-end="url(#ProcessOnMarker1071)" d="M580.5 673.5L580.5 648.25L580.5 648.25L580.5 638.2360679774998"/></g><g id="ProcessOnG1073"><path id="ProcessOnPath1074" fill="none" stroke="#323232" stroke-dasharray="none" stroke-width="2" marker-end="url(#ProcessOnMarker1075)" d="M697.5 673.5L697.5 648.25L697.5 648.25L697.5 638.2360679774998"/></g><g id="ProcessOnG1077"><path id="ProcessOnPath1078" fill="none" stroke="#323232" stroke-dasharray="none" stroke-width="2" marker-end="url(#ProcessOnMarker1079)" d="M814.5 673.5L814.5 648.25L814.5 648.25L814.5 638.2360679774998"/></g><g id="ProcessOnG1081"><path id="ProcessOnPath1082" fill="none" stroke="#323232" stroke-dasharray="none" stroke-width="2" marker-end="url(#ProcessOnMarker1083)" d="M229.0 576.5L270.5 576.5L270.5 576.5L296.7639320225002 576.5"/><g id="ProcessOnG1085" transform="matrix(1.0,0.0,0.0,1.0,262.88196601125014,556.5)"><path id="ProcessOnPath1086" fill="#fff" d="M0 0H42.0V40.0H0Z" transform="matrix(1.0,0.0,0.0,1.0,-21.0,0.0)"/><text id="ProcessOnText1087" x="0" y="16.4" fill="#000" family="微软雅黑" font-family="微软雅黑" font-size="16" font-style="normal" font-weight="normal" size="16" text-anchor="middle" text-decoration="none">Initial</text><text id="ProcessOnText1088" x="0" y="36.4" fill="#000" family="微软雅黑" font-family="微软雅黑" font-size="16" font-style="normal" font-weight="normal" size="16" text-anchor="middle" text-decoration="none">State</text></g></g><g id="ProcessOnG1089"><path id="ProcessOnPath1090" fill="none" stroke="#323232" stroke-dasharray="none" stroke-width="2" marker-end="url(#ProcessOnMarker1091)" d="M228.0 716.0L270.0 716.0L270.0 720.0L296.7639320225002 720.0"/><g id="ProcessOnG1093" transform="matrix(1.0,0.0,0.0,1.0,264.38196601125014,696.0)"><path id="ProcessOnPath1094" fill="#fff" d="M0 0H42.0V40.0H0Z" transform="matrix(1.0,0.0,0.0,1.0,-21.0,0.0)"/><text id="ProcessOnText1095" x="0" y="16.4" fill="#000" family="微软雅黑" font-family="微软雅黑" font-size="16" font-style="normal" font-weight="normal" size="16" text-anchor="middle" text-decoration="none">Initial</text><text id="ProcessOnText1096" x="0" y="36.4" fill="#000" family="微软雅黑" font-family="微软雅黑" font-size="16" font-style="normal" font-weight="normal" size="16" text-anchor="middle" text-decoration="none">State</text></g></g><g id="ProcessOnG1097"><path id="ProcessOnPath1098" fill="none" stroke="#323232" stroke-dasharray="none" stroke-width="2" marker-end="url(#ProcessOnMarker1099)" d="M849.0 578.0L893.0 578.0L893.0 578.0L921.7639320225002 578.0"/><g id="ProcessOnG1101" transform="matrix(1.0,0.0,0.0,1.0,885.3819660112501,558.0)"><path id="ProcessOnPath1102" fill="#fff" d="M0 0H39.0V40.0H0Z" transform="matrix(1.0,0.0,0.0,1.0,-19.5,0.0)"/><text id="ProcessOnText1103" x="0" y="16.4" fill="#000" family="微软雅黑" font-family="微软雅黑" font-size="16" font-style="normal" font-weight="normal" size="16" text-anchor="middle" text-decoration="none">Final</text><text id="ProcessOnText1104" x="0" y="36.4" fill="#000" family="微软雅黑" font-family="微软雅黑" font-size="16" font-style="normal" font-weight="normal" size="16" text-anchor="middle" text-decoration="none">State</text></g></g><g id="ProcessOnG1105"><path id="ProcessOnPath1106" fill="none" stroke="#323232" stroke-dasharray="none" stroke-width="2" marker-end="url(#ProcessOnMarker1107)" d="M849.0 720.0L892.0 720.0L892.0 716.0L919.7639320225002 716.0"/><g id="ProcessOnG1109" transform="matrix(1.0,0.0,0.0,1.0,886.3819660112501,700.0)"><path id="ProcessOnPath1110" fill="#fff" d="M0 0H39.0V40.0H0Z" transform="matrix(1.0,0.0,0.0,1.0,-19.5,0.0)"/><text id="ProcessOnText1111" x="0" y="16.4" fill="#000" family="微软雅黑" font-family="微软雅黑" font-size="16" font-style="normal" font-weight="normal" size="16" text-anchor="middle" text-decoration="none">Final</text><text id="ProcessOnText1112" x="0" y="36.4" fill="#000" family="微软雅黑" font-family="微软雅黑" font-size="16" font-style="normal" font-weight="normal" size="16" text-anchor="middle" text-decoration="none">State</text></g></g><g id="ProcessOnG1113"><path id="ProcessOnPath1114" fill="none" stroke="#323232" stroke-dasharray="none" stroke-width="2" marker-end="url(#ProcessOnMarker1115)" d="M381.0 720.0L405.0 720.0L405.0 720.0L413.7639320225002 720.0"/></g><g id="ProcessOnG1117"><path id="ProcessOnPath1118" fill="none" stroke="#323232" stroke-dasharray="none" stroke-width="2" marker-end="url(#ProcessOnMarker1119)" d="M498.0 720.0L522.0 720.0L522.0 720.0L530.7639320225002 720.0"/></g><g id="ProcessOnG1121"><path id="ProcessOnPath1122" fill="none" stroke="#323232" stroke-dasharray="none" stroke-width="2" marker-end="url(#ProcessOnMarker1123)" d="M615.0 720.0L639.0 720.0L639.0 720.0L647.7639320225002 720.0"/></g><g id="ProcessOnG1125"><path id="ProcessOnPath1126" fill="none" stroke="#323232" stroke-dasharray="none" stroke-width="2" marker-end="url(#ProcessOnMarker1127)" d="M732.0 720.0L756.0 720.0L756.0 720.0L764.7639320225002 720.0"/></g><g id="ProcessOnG1129"><path id="ProcessOnPath1130" fill="none" stroke="#323232" stroke-dasharray="none" stroke-width="2" marker-end="url(#ProcessOnMarker1131)" d="M346.5 802.0L346.5 784.25L346.5 784.25L346.5 781.7360679774998"/></g><g id="ProcessOnG1133"><path id="ProcessOnPath1134" fill="none" stroke="#323232" stroke-dasharray="none" stroke-width="2" marker-end="url(#ProcessOnMarker1135)" d="M463.5 802.0L463.5 784.25L463.5 784.25L463.5 781.7360679774998"/></g><g id="ProcessOnG1137"><path id="ProcessOnPath1138" fill="none" stroke="#323232" stroke-dasharray="none" stroke-width="2" marker-end="url(#ProcessOnMarker1139)" d="M580.5 801.0L580.5 783.75L580.5 783.75L580.5 781.7360679774998"/></g><g id="ProcessOnG1141"><path id="ProcessOnPath1142" fill="none" stroke="#323232" stroke-dasharray="none" stroke-width="2" marker-end="url(#ProcessOnMarker1143)" d="M697.5 801.0L697.5 783.75L697.5 783.75L697.5 781.7360679774998"/></g><g id="ProcessOnG1145"><path id="ProcessOnPath1146" fill="none" stroke="#323232" stroke-dasharray="none" stroke-width="2" marker-end="url(#ProcessOnMarker1147)" d="M814.5 800.0L814.5 783.25L814.5 783.25L814.5 781.7360679774998"/></g><g id="ProcessOnG1149"><path id="ProcessOnPath1150" fill="none" stroke="#323232" stroke-dasharray="none" stroke-width="2" marker-end="url(#ProcessOnMarker1151)" d="M345.0 531.0L345.0 515.5L345.0 515.5L345.0 515.2360679774998"/></g><g id="ProcessOnG1153"><path id="ProcessOnPath1154" fill="none" stroke="#323232" stroke-dasharray="none" stroke-width="2" marker-end="url(#ProcessOnMarker1155)" d="M463.5 530.0L463.5 515.0L463.5 515.0L463.5 514.0"/></g><g id="ProcessOnG1157"><path id="ProcessOnPath1158" fill="none" stroke="#323232" stroke-dasharray="none" stroke-width="2" marker-end="url(#ProcessOnMarker1159)" d="M580.5 530.0L580.5 515.0L580.5 515.0L580.5 514.0"/></g><g id="ProcessOnG1161"><path id="ProcessOnPath1162" fill="none" stroke="#323232" stroke-dasharray="none" stroke-width="2" marker-end="url(#ProcessOnMarker1163)" d="M697.5 530.0L697.5 515.5L697.5 515.5L697.5 514.5"/></g><g id="ProcessOnG1165"><path id="ProcessOnPath1166" fill="none" stroke="#323232" stroke-dasharray="none" stroke-width="2" marker-end="url(#ProcessOnMarker1167)" d="M814.5 530.0L814.5 515.0L814.5 515.0L814.5 514.0"/></g><g id="ProcessOnG1169" opacity="1" transform="matrix(1.0,0.0,0.0,1.0,325.5,802.0)"><path id="ProcessOnPath1170" fill="none" stroke="none" stroke-dasharray="none" stroke-width="0" d="M0.0 0.0L42.0 0.0L42.0 36.0L0.0 36.0Z" opacity="1"/><g id="ProcessOnG1171" transform="matrix(1.0,0.0,0.0,1.0,0.0,4.875)"><text id="ProcessOnText1172" x="20" y="21.525" fill="#000" family="微软雅黑" font-family="微软雅黑" font-size="21" font-style="normal" font-weight="normal" size="21" text-anchor="middle" text-decoration="none">床</text></g></g><g id="ProcessOnG1173" opacity="1" transform="matrix(1.0,0.0,0.0,1.0,442.5,802.0)"><path id="ProcessOnPath1174" fill="none" stroke="none" stroke-dasharray="none" stroke-width="0" d="M0.0 0.0L42.0 0.0L42.0 36.0L0.0 36.0Z" opacity="1"/><g id="ProcessOnG1175" transform="matrix(1.0,0.0,0.0,1.0,0.0,4.875)"><text id="ProcessOnText1176" x="20" y="21.525" fill="#000" family="微软雅黑" font-family="微软雅黑" font-size="21" font-style="normal" font-weight="normal" size="21" text-anchor="middle" text-decoration="none">前</text></g></g><g id="ProcessOnG1177" opacity="1" transform="matrix(1.0,0.0,0.0,1.0,559.5,802.0)"><path id="ProcessOnPath1178" fill="none" stroke="none" stroke-dasharray="none" stroke-width="0" d="M0.0 0.0L42.0 0.0L42.0 36.0L0.0 36.0Z" opacity="1"/><g id="ProcessOnG1179" transform="matrix(1.0,0.0,0.0,1.0,0.0,4.875)"><text id="ProcessOnText1180" x="20" y="21.525" fill="#000" family="微软雅黑" font-family="微软雅黑" font-size="21" font-style="normal" font-weight="normal" size="21" text-anchor="middle" text-decoration="none">明</text></g></g><g id="ProcessOnG1181" opacity="1" transform="matrix(1.0,0.0,0.0,1.0,676.5,802.0)"><path id="ProcessOnPath1182" fill="none" stroke="none" stroke-dasharray="none" stroke-width="0" d="M0.0 0.0L42.0 0.0L42.0 36.0L0.0 36.0Z" opacity="1"/><g id="ProcessOnG1183" transform="matrix(1.0,0.0,0.0,1.0,0.0,4.875)"><text id="ProcessOnText1184" x="20" y="21.525" fill="#000" family="微软雅黑" font-family="微软雅黑" font-size="21" font-style="normal" font-weight="normal" size="21" text-anchor="middle" text-decoration="none">月</text></g></g><g id="ProcessOnG1185" opacity="1" transform="matrix(1.0,0.0,0.0,1.0,793.5,802.0)"><path id="ProcessOnPath1186" fill="none" stroke="none" stroke-dasharray="none" stroke-width="0" d="M0.0 0.0L42.0 0.0L42.0 36.0L0.0 36.0Z" opacity="1"/><g id="ProcessOnG1187" transform="matrix(1.0,0.0,0.0,1.0,0.0,4.875)"><text id="ProcessOnText1188" x="20" y="21.525" fill="#000" family="微软雅黑" font-family="微软雅黑" font-size="21" font-style="normal" font-weight="normal" size="21" text-anchor="middle" text-decoration="none">光</text></g></g><g id="ProcessOnG1189" opacity="1" transform="matrix(1.0,0.0,0.0,1.0,442.5,464.0)"><path id="ProcessOnPath1190" fill="none" stroke="none" stroke-dasharray="none" stroke-width="0" d="M0.0 0.0L42.0 0.0L42.0 36.0L0.0 36.0Z" opacity="1"/><g id="ProcessOnG1191" transform="matrix(1.0,0.0,0.0,1.0,0.0,4.875)"><text id="ProcessOnText1192" x="20" y="21.525" fill="#000" family="微软雅黑" font-family="微软雅黑" font-size="21" font-style="normal" font-weight="normal" size="21" text-anchor="middle" text-decoration="none">明</text></g></g><g id="ProcessOnG1193" opacity="1" transform="matrix(1.0,0.0,0.0,1.0,325.5,464.0)"><path id="ProcessOnPath1194" fill="none" stroke="none" stroke-dasharray="none" stroke-width="0" d="M0.0 0.0L42.0 0.0L42.0 36.0L0.0 36.0Z" opacity="1"/><g id="ProcessOnG1195" transform="matrix(1.0,0.0,0.0,1.0,0.0,4.875)"><text id="ProcessOnText1196" x="20" y="21.525" fill="#000" family="微软雅黑" font-family="微软雅黑" font-size="21" font-style="normal" font-weight="normal" size="21" text-anchor="middle" text-decoration="none">前</text></g></g><g id="ProcessOnG1197" opacity="1" transform="matrix(1.0,0.0,0.0,1.0,559.5,464.0)"><path id="ProcessOnPath1198" fill="none" stroke="none" stroke-dasharray="none" stroke-width="0" d="M0.0 0.0L42.0 0.0L42.0 36.0L0.0 36.0Z" opacity="1"/><g id="ProcessOnG1199" transform="matrix(1.0,0.0,0.0,1.0,0.0,4.875)"><text id="ProcessOnText1200" x="20" y="21.525" fill="#000" family="微软雅黑" font-family="微软雅黑" font-size="21" font-style="normal" font-weight="normal" size="21" text-anchor="middle" text-decoration="none">月</text></g></g><g id="ProcessOnG1201" opacity="1" transform="matrix(1.0,0.0,0.0,1.0,676.5,464.0)"><path id="ProcessOnPath1202" fill="none" stroke="none" stroke-dasharray="none" stroke-width="0" d="M0.0 0.0L42.0 0.0L42.0 36.0L0.0 36.0Z" opacity="1"/><g id="ProcessOnG1203" transform="matrix(1.0,0.0,0.0,1.0,0.0,4.875)"><text id="ProcessOnText1204" x="20" y="21.525" fill="#000" family="微软雅黑" font-family="微软雅黑" font-size="21" font-style="normal" font-weight="normal" size="21" text-anchor="middle" text-decoration="none">光</text></g></g><g id="ProcessOnG1205" opacity="1" transform="matrix(1.0,0.0,0.0,1.0,793.5,464.0)"><path id="ProcessOnPath1206" fill="none" stroke="none" stroke-dasharray="none" stroke-width="0" d="M0.0 0.0L42.0 0.0L42.0 36.0L0.0 36.0Z" opacity="1"/><g id="ProcessOnG1207" transform="matrix(1.0,0.0,0.0,1.0,0.0,4.875)"><text id="ProcessOnText1208" x="20" y="21.525" fill="#000" family="微软雅黑" font-family="微软雅黑" font-size="21" font-style="normal" font-weight="normal" size="21" text-anchor="middle" text-decoration="none">EOF</text></g></g></g></g></svg>